<svg width="32" height="32" viewBox="0 0 32 32" fill="none" xmlns="http://www.w3.org/2000/svg">
<path d="M5.33331 15.2696V22.4002C5.33331 23.8937 5.33331 24.641 5.62396 25.2114C5.87962 25.7132 6.28728 26.1207 6.78904 26.3764C7.35892 26.6668 8.10531 26.6668 9.59586 26.6668H22.4041C23.8947 26.6668 24.64 26.6668 25.2098 26.3764C25.7116 26.1207 26.1206 25.7132 26.3763 25.2114C26.6666 24.6415 26.6666 23.8954 26.6666 22.4049V15.2696C26.6666 14.5572 26.666 14.2008 26.5794 13.8692C26.5026 13.5754 26.3766 13.2974 26.2061 13.0462C26.0136 12.7627 25.746 12.5276 25.2099 12.0584L18.8099 6.45843C17.8144 5.58739 17.3167 5.15208 16.7565 4.98643C16.2629 4.84046 15.7368 4.84046 15.2432 4.98643C14.6835 5.15196 14.1864 5.58685 13.1925 6.45658L6.79034 12.0584C6.25417 12.5276 5.9867 12.7627 5.79425 13.0462C5.6237 13.2974 5.49671 13.5754 5.41994 13.8692C5.33331 14.2008 5.33331 14.5572 5.33331 15.2696Z" stroke="white" stroke-width="2" stroke-linecap="round" stroke-linejoin="round"/>
</svg>
