<svg width="16" height="16" viewBox="0 0 16 16" fill="none" xmlns="http://www.w3.org/2000/svg">
<path fill-rule="evenodd" clip-rule="evenodd" d="M6.66667 3.33333C5.78261 3.33333 4.93477 3.68452 4.30964 4.30964C3.68452 4.93476 3.33333 5.7826 3.33333 6.66666C3.33333 7.55071 3.68452 8.39856 4.30964 9.02368C4.93477 9.6488 5.78261 9.99999 6.66667 9.99999C7.55072 9.99999 8.39857 9.6488 9.02369 9.02368C9.64881 8.39856 10 7.55071 10 6.66666C10 5.7826 9.64881 4.93476 9.02369 4.30964C8.39857 3.68452 7.55072 3.33333 6.66667 3.33333ZM2 6.66666C2 5.9275 2.17558 5.19891 2.51229 4.54089C2.84899 3.88288 3.33719 3.31425 3.93667 2.88184C4.53615 2.44943 5.22978 2.16561 5.96042 2.05375C6.69107 1.94189 7.43784 2.00518 8.13923 2.23843C8.84063 2.47167 9.47659 2.86818 9.99474 3.39532C10.5129 3.92246 10.8984 4.56514 11.1196 5.27044C11.3407 5.97575 11.3912 6.72349 11.2668 7.45211C11.1424 8.18072 10.8466 8.86936 10.404 9.46133L13.8047 12.8613C13.9298 12.9863 14.0001 13.1559 14.0001 13.3328C14.0002 13.5096 13.93 13.6792 13.805 13.8043C13.68 13.9294 13.5104 13.9997 13.3336 13.9998C13.1567 13.9999 12.9871 13.9297 12.862 13.8047L9.462 10.4047C8.76834 10.9235 7.94395 11.2391 7.08111 11.3161C6.21828 11.393 5.35105 11.2282 4.57654 10.8403C3.80202 10.4523 3.15079 9.85637 2.69574 9.11925C2.24068 8.38214 1.99978 7.53292 2 6.66666Z" fill="black"/>
</svg>
